<svg viewBox="0 0 32 62" fill="none" xmlns="http://www.w3.org/2000/svg">
<path d="M4.15869 58.016H8.14269V50.784H4.15869V58.016ZM1.88669 60V48.8H8.68669L10.4147 50.528V58.272L8.68669 60H1.88669ZM12.0109 58.272V50.528L13.7389 48.8H19.5629L21.2909 50.528V58.272L19.5629 60H13.7389L12.0109 58.272ZM14.3469 50.784V58.016H18.9549V50.784H14.3469ZM22.8859 58.272V50.528L24.6139 48.8H30.3419V50.864H25.2219V57.936H30.5019V60H24.6139L22.8859 58.272Z" fill="currentColor"/>
<path d="M8.88906 14.6904H23.1113V11.8685H8.88906V14.6904Z" fill="currentColor"/>
<path d="M23.1113 22.4107H8.88906V19.5889H23.1113V22.4107Z" fill="currentColor"/>
<path d="M8.88906 30.1313H23.1113V27.3095H8.88906V30.1313Z" fill="currentColor"/>
<path fill-rule="evenodd" clip-rule="evenodd" d="M0 0H23.1111L27.2593 3.39706L32 7.72059V42H0V0ZM29.3012 39.1781H2.69883V2.82187H22.18L25.539 5.57266L29.3012 9.00373V39.1781Z" fill="currentColor"/>
</svg>
