<svg viewBox="0 0 34 59" fill="none" xmlns="http://www.w3.org/2000/svg">
<path d="M0.797582 57V47.9H2.64358V51.488H6.20558V47.9H8.05158V57H6.20558V53.152H2.64358V57H0.797582ZM11.498 57V49.512H8.989V47.9H15.853V49.512H13.344V57H11.498ZM16.7937 57V47.9H19.0297L21.1877 52.112L23.3457 47.9H25.5817V57H23.7747V50.227L21.6297 54.348H20.7457L18.6007 50.227V57H16.7937ZM26.9372 57V47.9H28.7832V55.44H31.8512V53.36H33.5152V57H26.9372Z" fill="currentColor"/>
<path fill-rule="evenodd" clip-rule="evenodd" d="M1 0H24.1111L28.2593 3.39706L33 7.72059V42H1V0ZM30.3012 39.1781H3.69883V2.82187H23.18L26.539 5.57266L30.3012 9.00373V39.1781Z" fill="currentColor"/>
<path d="M11.7391 19.3044L7.72415 22.174L11.7391 25.0435V27.4348L6 23.0585V21.2894L11.7391 16.9131V19.3044Z" fill="currentColor"/>
<path d="M22.2609 25.0438L26.2758 22.1742L22.2609 19.3046L22.2609 16.9133L28 21.2896L28 23.0588L22.2609 27.4351L22.2609 25.0438Z" fill="currentColor"/>
<path d="M18.2217 16H20L15.7783 28H14L18.2217 16Z" fill="currentColor"/>
</svg>
