<svg viewBox="0 0 32 62" fill="none" xmlns="http://www.w3.org/2000/svg">
<path d="M1.51906 58.176V54.88H3.79106V57.952H7.56706V50.784H1.96706V48.8H9.83906V58.176L8.01506 60H3.34306L1.51906 58.176ZM13.7368 55.744H17.8328V50.656H13.7368V55.744ZM20.1048 50.528V55.872L18.3768 57.6H13.7368V60H11.4648V48.8H18.3768L20.1048 50.528ZM21.4172 58.272V50.528L23.1452 48.8H29.5452V50.784H23.6892V58.016H28.1052V55.168H25.4172V53.328H30.1532V60H23.1452L21.4172 58.272Z" fill="currentColor"/>
<path fill-rule="evenodd" clip-rule="evenodd" d="M0 0H23.1111L27.2593 3.39706L32 7.72059V42H0V0ZM29.3012 39.1781H2.69883V2.82187H22.18L25.539 5.57266L29.3012 9.00373V39.1781Z" fill="currentColor"/>
<g clip-path="url(#clip0_54_21258)">
<path d="M24.25 17.625C24.9793 17.625 25.6788 17.3287 26.1945 16.8012C26.7103 16.2738 27 15.5584 27 14.8125C27 14.0666 26.7103 13.3512 26.1945 12.8238C25.6788 12.2963 24.9793 12 24.25 12C23.5207 12 22.8212 12.2963 22.3055 12.8238C21.7897 13.3512 21.5 14.0666 21.5 14.8125C21.5 15.5584 21.7897 16.2738 22.3055 16.8012C22.8212 17.3287 23.5207 17.625 24.25 17.625ZM6.92156 30H18.1003H20.6784H24.8997C26.0616 30 27 29.0367 27 27.852C27 27.4582 26.8934 27.0715 26.6941 26.734L22.1566 19.1297C22.0156 18.8941 21.7681 18.75 21.5 18.75C21.2319 18.75 20.9844 18.8941 20.8434 19.1262L19.1866 21.9035L14.8587 14.8477C14.6319 14.475 14.2297 14.25 13.8 14.25C13.3703 14.25 12.9716 14.475 12.7413 14.8477L5.29563 26.9906C5.10313 27.3035 5 27.6656 5 28.0348C5 29.1211 5.85938 30 6.92156 30Z" fill="currentColor"/>
</g>
</svg>
