<svg viewBox="0 0 34 59" fill="none" xmlns="http://www.w3.org/2000/svg">
<path d="M8.59834 49.304V53.646L7.19434 55.05H3.42434V57H1.57834V47.9H7.19434L8.59834 49.304ZM3.42434 53.542H6.75234V49.408H3.42434V53.542ZM16.7106 49.304V53.646L15.3066 55.05H11.5366V57H9.69065V47.9H15.3066L16.7106 49.304ZM11.5366 53.542H14.8646V49.408H11.5366V53.542ZM19.896 57V49.512H17.387V47.9H24.251V49.512H21.742V57H19.896ZM24.6716 57L26.8036 52.19L24.8666 47.9H26.8556L28.3376 51.488H29.2736L30.7556 47.9H32.7446L30.8076 52.19L32.9396 57H30.9376L29.3776 53.152H28.2336L26.6736 57H24.6716Z" fill="currentColor"/>
<path d="M9.88906 14.6904H24.1113V11.8685H9.88906V14.6904Z" fill="currentColor"/>
<path d="M24.1113 22.4107H9.88906V19.5889H24.1113V22.4107Z" fill="currentColor"/>
<path d="M9.88906 30.1313H24.1113V27.3095H9.88906V30.1313Z" fill="currentColor"/>
<path fill-rule="evenodd" clip-rule="evenodd" d="M1 0H24.1111L28.2593 3.39706L33 7.72059V42H1V0ZM30.3012 39.1781H3.69883V2.82187H23.18L26.539 5.57266L30.3012 9.00373V39.1781Z" fill="currentColor"/>
</svg>
