<svg viewBox="0 0 32 62" fill="none" xmlns="http://www.w3.org/2000/svg">
<path d="M7.43144 60V50.784H4.34344V48.8H12.7914V50.784H9.70344V60H7.43144ZM13.8372 60.064V58.24L15.4212 58.16V50.64L13.8372 50.56V48.736L16.5572 48.864L19.2772 48.736V50.56L17.6932 50.64V58.16L19.2772 58.24V60.064L16.5572 59.936L13.8372 60.064ZM20.8242 60V48.8H28.5042V50.848H23.0962V54.304H28.1842V56.288H23.0962V60H20.8242Z" fill="currentColor"/>
<path d="M8.88906 14.6904H23.1113V11.8685H8.88906V14.6904Z" fill="currentColor"/>
<path d="M23.1113 22.4107H8.88906V19.5889H23.1113V22.4107Z" fill="currentColor"/>
<path d="M8.88906 30.1313H23.1113V27.3095H8.88906V30.1313Z" fill="currentColor"/>
<path fill-rule="evenodd" clip-rule="evenodd" d="M0 0H23.1111L27.2593 3.39706L32 7.72059V42H0V0ZM29.3012 39.1781H2.69883V2.82187H22.18L25.539 5.57266L29.3012 9.00373V39.1781Z" fill="currentColor"/>
</svg>
