<svg viewBox="0 0 32 62" fill="none" xmlns="http://www.w3.org/2000/svg">
<path d="M1.60606 60L4.23006 54.08L1.84606 48.8H4.29406L6.11806 53.216H7.27006L9.09406 48.8H11.5421L9.15806 54.08L11.7821 60H9.31806L7.39806 55.264H5.99006L4.07006 60H1.60606ZM12.8086 60V48.8H15.0806V58.08H18.8566V55.52H20.9046V60H12.8086ZM22.3116 60V58.016H28.5196V55.424L22.1516 54.896V50.464L23.8156 48.8H30.6316V50.784H24.4236V53.216L30.7916 53.744V58.336L29.1276 60H22.3116Z" fill="currentColor"/>
<path d="M8.88906 14.6904H23.1113V11.8685H8.88906V14.6904Z" fill="currentColor"/>
<path d="M23.1113 22.4107H8.88906V19.5889H23.1113V22.4107Z" fill="currentColor"/>
<path d="M8.88906 30.1313H23.1113V27.3095H8.88906V30.1313Z" fill="currentColor"/>
<path fill-rule="evenodd" clip-rule="evenodd" d="M0 0H23.1111L27.2593 3.39706L32 7.72059V42H0V0ZM29.3012 39.1781H2.69883V2.82187H22.18L25.539 5.57266L29.3012 9.00373V39.1781Z" fill="currentColor"/>
</svg>
