<svg viewBox="0 0 34 59" fill="none" xmlns="http://www.w3.org/2000/svg">
<path d="M0.60766 57L2.73966 52.19L0.80266 47.9H2.79166L4.27366 51.488H5.20966L6.69166 47.9H8.68066L6.74366 52.19L8.87566 57H6.87366L5.31366 53.152H4.16966L2.60966 57H0.60766ZM9.70969 57V47.9H11.5557V55.44H14.6237V53.36H16.2877V57H9.70969ZM17.4309 57V55.388H22.4749V53.282L17.3009 52.853V49.252L18.6529 47.9H24.1909V49.512H19.1469V51.488L24.3209 51.917V55.648L22.9689 57H17.4309ZM25.1223 57L27.2543 52.19L25.3173 47.9H27.3063L28.7883 51.488H29.7243L31.2063 47.9H33.1953L31.2583 52.19L33.3903 57H31.3883L29.8283 53.152H28.6843L27.1243 57H25.1223Z" fill="currentColor"/>
<path d="M9.88906 14.6904H24.1113V11.8685H9.88906V14.6904Z" fill="currentColor"/>
<path d="M24.1113 22.4107H9.88906V19.5889H24.1113V22.4107Z" fill="currentColor"/>
<path d="M9.88906 30.1313H24.1113V27.3095H9.88906V30.1313Z" fill="currentColor"/>
<path fill-rule="evenodd" clip-rule="evenodd" d="M1 0H24.1111L28.2593 3.39706L33 7.72059V42H1V0ZM30.3012 39.1781H3.69883V2.82187H23.18L26.539 5.57266L30.3012 9.00373V39.1781Z" fill="currentColor"/>
</svg>
