<svg viewBox="0 0 33 62" fill="none" xmlns="http://www.w3.org/2000/svg">
<path d="M0.481063 60L3.10506 54.08L0.721063 48.8H3.16906L4.99306 53.216H6.14506L7.96906 48.8H10.4171L8.03306 54.08L10.6571 60H8.19306L6.27306 55.264H4.86506L2.94506 60H0.481063ZM11.6836 60V48.8H14.4356L17.0916 53.984L19.7476 48.8H22.4996V60H20.2756V51.664L17.6356 56.736H16.5476L13.9076 51.664V60H11.6836ZM24.1679 60V48.8H26.4399V58.08H30.2159V55.52H32.2639V60H24.1679Z" fill="currentColor"/>
<path fill-rule="evenodd" clip-rule="evenodd" d="M0 0H23.1111L27.2593 3.39706L32 7.72059V42H0V0ZM29.3012 39.1781H2.69883V2.82187H22.18L25.539 5.57266L29.3012 9.00373V39.1781Z" fill="currentColor"/>
<path d="M10.7391 19.3044L6.72415 22.174L10.7391 25.0435V27.4348L5 23.0585V21.2894L10.7391 16.9131V19.3044Z" fill="currentColor"/>
<path d="M21.2609 25.0438L25.2758 22.1742L21.2609 19.3046L21.2609 16.9133L27 21.2896L27 23.0588L21.2609 27.4351L21.2609 25.0438Z" fill="currentColor"/>
<path d="M17.2217 16H19L14.7783 28H13L17.2217 16Z" fill="currentColor"/>
</svg>
