<svg viewBox="0 0 33 62" fill="none" xmlns="http://www.w3.org/2000/svg">
  <path d="M 4.186 60.968 L 4.186 59.272 L 9.354 51.688 L 4.218 51.688 L 4.218 49.768 L 11.93 49.768 L 11.93 51.464 L 6.762 59.048 L 11.962 59.048 L 11.962 60.968 L 4.186 60.968 Z M 13.283 61.032 L 13.283 59.208 L 14.867 59.128 L 14.867 51.608 L 13.283 51.528 L 13.283 49.704 L 16.003 49.832 L 18.723 49.704 L 18.723 51.528 L 17.139 51.608 L 17.139 59.128 L 18.723 59.208 L 18.723 61.032 L 16.003 60.904 L 13.283 61.032 Z M 22.542 56.712 L 26.638 56.712 L 26.638 51.624 L 22.542 51.624 L 22.542 56.712 Z M 28.91 51.496 L 28.91 56.84 L 27.182 58.568 L 22.542 58.568 L 22.542 60.968 L 20.27 60.968 L 20.27 49.768 L 27.182 49.768 L 28.91 51.496 Z" fill="currentColor"/>
  <path d="M 19.426 38.178 L 12.746 38.178 L 12.746 26.464 L 19.445 26.464 L 19.426 38.178 Z M 17.761 33.144 L 14.411 33.144 L 14.411 36.493 L 17.761 36.493 L 17.761 33.144 Z M 19.426 24.894 L 16.077 24.894 L 16.077 21.545 L 19.426 21.545 L 19.426 24.894 Z M 12.746 21.545 L 12.746 18.195 L 16.096 18.195 L 16.096 21.545 L 12.746 21.545 Z M 12.746 11.496 L 16.096 11.496 L 16.096 14.845 L 12.746 14.845 L 12.746 11.496 Z M 12.746 4.816 L 16.096 4.816 L 16.096 8.165 L 12.746 8.165 L 12.746 4.816 Z M 19.426 8.165 L 19.426 11.515 L 16.077 11.515 L 16.077 8.165 L 19.426 8.165 Z M 19.426 14.845 L 19.426 18.195 L 16.077 18.195 L 16.077 14.845 L 19.426 14.845 Z" fill="currentColor"/>
  <path fill-rule="evenodd" clip-rule="evenodd" d="M 0.5 0.968 L 23.611 0.968 L 27.759 4.365 L 32.5 8.689 L 32.5 42.968 L 0.5 42.968 L 0.5 0.968 Z M 29.801 40.146 L 3.199 40.146 L 3.199 3.79 L 22.68 3.79 L 26.039 6.541 L 29.801 9.972 L 29.801 40.146 Z" fill="currentColor"/>
</svg>